<mxfile host="app.diagrams.net" modified="2023-10-13T02:47:02.766Z" agent="Mozilla/5.0 (Windows NT 10.0; Win64; x64) AppleWebKit/537.36 (KHTML, like Gecko) Chrome/117.0.0.0 Safari/537.36" etag="JF5HHK2Djtt0TkMIeKB4" version="22.0.4" type="github">
  <diagram id="R2lEEEUBdFMjLlhIrx00" name="Page-1">
    <mxGraphModel dx="2045" dy="632" grid="1" gridSize="10" guides="1" tooltips="1" connect="1" arrows="1" fold="1" page="1" pageScale="1" pageWidth="850" pageHeight="1100" math="0" shadow="0" extFonts="Permanent Marker^https://fonts.googleapis.com/css?family=Permanent+Marker">
      <root>
        <mxCell id="0" />
        <mxCell id="1" parent="0" />
        <mxCell id="C-vyLk0tnHw3VtMMgP7b-12" value="" style="edgeStyle=entityRelationEdgeStyle;endArrow=ERzeroToMany;startArrow=ERone;endFill=1;startFill=0;fillColor=#d5e8d4;strokeColor=#82b366;" parent="1" source="C-vyLk0tnHw3VtMMgP7b-3" target="C-vyLk0tnHw3VtMMgP7b-17" edge="1">
          <mxGeometry width="100" height="100" relative="1" as="geometry">
            <mxPoint x="400" y="180" as="sourcePoint" />
            <mxPoint x="460" y="205" as="targetPoint" />
          </mxGeometry>
        </mxCell>
        <mxCell id="C-vyLk0tnHw3VtMMgP7b-2" value="VIdeo" style="shape=table;startSize=30;container=1;collapsible=1;childLayout=tableLayout;fixedRows=1;rowLines=0;fontStyle=1;align=center;resizeLast=1;" parent="1" vertex="1">
          <mxGeometry x="41" y="270" width="248" height="180" as="geometry" />
        </mxCell>
        <mxCell id="C-vyLk0tnHw3VtMMgP7b-3" value="" style="shape=partialRectangle;collapsible=0;dropTarget=0;pointerEvents=0;fillColor=none;points=[[0,0.5],[1,0.5]];portConstraint=eastwest;top=0;left=0;right=0;bottom=1;" parent="C-vyLk0tnHw3VtMMgP7b-2" vertex="1">
          <mxGeometry y="30" width="248" height="30" as="geometry" />
        </mxCell>
        <mxCell id="C-vyLk0tnHw3VtMMgP7b-4" value="PK" style="shape=partialRectangle;overflow=hidden;connectable=0;fillColor=none;top=0;left=0;bottom=0;right=0;fontStyle=1;" parent="C-vyLk0tnHw3VtMMgP7b-3" vertex="1">
          <mxGeometry width="30" height="30" as="geometry">
            <mxRectangle width="30" height="30" as="alternateBounds" />
          </mxGeometry>
        </mxCell>
        <mxCell id="C-vyLk0tnHw3VtMMgP7b-5" value="video_id  INT NOT NULL" style="shape=partialRectangle;overflow=hidden;connectable=0;fillColor=none;top=0;left=0;bottom=0;right=0;align=left;spacingLeft=6;fontStyle=5;" parent="C-vyLk0tnHw3VtMMgP7b-3" vertex="1">
          <mxGeometry x="30" width="218" height="30" as="geometry">
            <mxRectangle width="218" height="30" as="alternateBounds" />
          </mxGeometry>
        </mxCell>
        <mxCell id="C-vyLk0tnHw3VtMMgP7b-6" value="" style="shape=partialRectangle;collapsible=0;dropTarget=0;pointerEvents=0;fillColor=none;points=[[0,0.5],[1,0.5]];portConstraint=eastwest;top=0;left=0;right=0;bottom=0;" parent="C-vyLk0tnHw3VtMMgP7b-2" vertex="1">
          <mxGeometry y="60" width="248" height="30" as="geometry" />
        </mxCell>
        <mxCell id="C-vyLk0tnHw3VtMMgP7b-7" value="" style="shape=partialRectangle;overflow=hidden;connectable=0;fillColor=none;top=0;left=0;bottom=0;right=0;" parent="C-vyLk0tnHw3VtMMgP7b-6" vertex="1">
          <mxGeometry width="30" height="30" as="geometry">
            <mxRectangle width="30" height="30" as="alternateBounds" />
          </mxGeometry>
        </mxCell>
        <mxCell id="C-vyLk0tnHw3VtMMgP7b-8" value="title     VARCHAR(100) NOT NULL" style="shape=partialRectangle;overflow=hidden;connectable=0;fillColor=none;top=0;left=0;bottom=0;right=0;align=left;spacingLeft=6;" parent="C-vyLk0tnHw3VtMMgP7b-6" vertex="1">
          <mxGeometry x="30" width="218" height="30" as="geometry">
            <mxRectangle width="218" height="30" as="alternateBounds" />
          </mxGeometry>
        </mxCell>
        <mxCell id="C-vyLk0tnHw3VtMMgP7b-9" value="" style="shape=partialRectangle;collapsible=0;dropTarget=0;pointerEvents=0;fillColor=none;points=[[0,0.5],[1,0.5]];portConstraint=eastwest;top=0;left=0;right=0;bottom=0;" parent="C-vyLk0tnHw3VtMMgP7b-2" vertex="1">
          <mxGeometry y="90" width="248" height="30" as="geometry" />
        </mxCell>
        <mxCell id="C-vyLk0tnHw3VtMMgP7b-10" value="" style="shape=partialRectangle;overflow=hidden;connectable=0;fillColor=none;top=0;left=0;bottom=0;right=0;" parent="C-vyLk0tnHw3VtMMgP7b-9" vertex="1">
          <mxGeometry width="30" height="30" as="geometry">
            <mxRectangle width="30" height="30" as="alternateBounds" />
          </mxGeometry>
        </mxCell>
        <mxCell id="C-vyLk0tnHw3VtMMgP7b-11" value="creator    VARCHAR(100) NOT NULL" style="shape=partialRectangle;overflow=hidden;connectable=0;fillColor=none;top=0;left=0;bottom=0;right=0;align=left;spacingLeft=6;" parent="C-vyLk0tnHw3VtMMgP7b-9" vertex="1">
          <mxGeometry x="30" width="218" height="30" as="geometry">
            <mxRectangle width="218" height="30" as="alternateBounds" />
          </mxGeometry>
        </mxCell>
        <mxCell id="t7cCHwxWvPuToDeoCMoL-52" value="" style="shape=tableRow;horizontal=0;startSize=0;swimlaneHead=0;swimlaneBody=0;fillColor=none;collapsible=0;dropTarget=0;points=[[0,0.5],[1,0.5]];portConstraint=eastwest;top=0;left=0;right=0;bottom=0;" vertex="1" parent="C-vyLk0tnHw3VtMMgP7b-2">
          <mxGeometry y="120" width="248" height="30" as="geometry" />
        </mxCell>
        <mxCell id="t7cCHwxWvPuToDeoCMoL-53" value="" style="shape=partialRectangle;connectable=0;fillColor=none;top=0;left=0;bottom=0;right=0;editable=1;overflow=hidden;" vertex="1" parent="t7cCHwxWvPuToDeoCMoL-52">
          <mxGeometry width="30" height="30" as="geometry">
            <mxRectangle width="30" height="30" as="alternateBounds" />
          </mxGeometry>
        </mxCell>
        <mxCell id="t7cCHwxWvPuToDeoCMoL-54" value="part        VARCHAR(100) NOT NULL" style="shape=partialRectangle;connectable=0;fillColor=none;top=0;left=0;bottom=0;right=0;align=left;spacingLeft=6;overflow=hidden;" vertex="1" parent="t7cCHwxWvPuToDeoCMoL-52">
          <mxGeometry x="30" width="218" height="30" as="geometry">
            <mxRectangle width="218" height="30" as="alternateBounds" />
          </mxGeometry>
        </mxCell>
        <mxCell id="t7cCHwxWvPuToDeoCMoL-56" value="" style="shape=tableRow;horizontal=0;startSize=0;swimlaneHead=0;swimlaneBody=0;fillColor=none;collapsible=0;dropTarget=0;points=[[0,0.5],[1,0.5]];portConstraint=eastwest;top=0;left=0;right=0;bottom=0;" vertex="1" parent="C-vyLk0tnHw3VtMMgP7b-2">
          <mxGeometry y="150" width="248" height="30" as="geometry" />
        </mxCell>
        <mxCell id="t7cCHwxWvPuToDeoCMoL-57" value="" style="shape=partialRectangle;connectable=0;fillColor=none;top=0;left=0;bottom=0;right=0;editable=1;overflow=hidden;" vertex="1" parent="t7cCHwxWvPuToDeoCMoL-56">
          <mxGeometry width="30" height="30" as="geometry">
            <mxRectangle width="30" height="30" as="alternateBounds" />
          </mxGeometry>
        </mxCell>
        <mxCell id="t7cCHwxWvPuToDeoCMoL-58" value="view_count    INT DEFAULT 0" style="shape=partialRectangle;connectable=0;fillColor=none;top=0;left=0;bottom=0;right=0;align=left;spacingLeft=6;overflow=hidden;" vertex="1" parent="t7cCHwxWvPuToDeoCMoL-56">
          <mxGeometry x="30" width="218" height="30" as="geometry">
            <mxRectangle width="218" height="30" as="alternateBounds" />
          </mxGeometry>
        </mxCell>
        <mxCell id="C-vyLk0tnHw3VtMMgP7b-13" value="Review" style="shape=table;startSize=30;container=1;collapsible=1;childLayout=tableLayout;fixedRows=1;rowLines=0;fontStyle=1;align=center;resizeLast=1;" parent="1" vertex="1">
          <mxGeometry x="590" y="290" width="430" height="180" as="geometry" />
        </mxCell>
        <mxCell id="C-vyLk0tnHw3VtMMgP7b-14" value="" style="shape=partialRectangle;collapsible=0;dropTarget=0;pointerEvents=0;fillColor=none;points=[[0,0.5],[1,0.5]];portConstraint=eastwest;top=0;left=0;right=0;bottom=1;" parent="C-vyLk0tnHw3VtMMgP7b-13" vertex="1">
          <mxGeometry y="30" width="430" height="30" as="geometry" />
        </mxCell>
        <mxCell id="C-vyLk0tnHw3VtMMgP7b-15" value="PK" style="shape=partialRectangle;overflow=hidden;connectable=0;fillColor=none;top=0;left=0;bottom=0;right=0;fontStyle=1;" parent="C-vyLk0tnHw3VtMMgP7b-14" vertex="1">
          <mxGeometry width="150" height="30" as="geometry">
            <mxRectangle width="150" height="30" as="alternateBounds" />
          </mxGeometry>
        </mxCell>
        <mxCell id="C-vyLk0tnHw3VtMMgP7b-16" value="review_id    INT NOT NULL" style="shape=partialRectangle;overflow=hidden;connectable=0;fillColor=none;top=0;left=0;bottom=0;right=0;align=left;spacingLeft=6;fontStyle=5;" parent="C-vyLk0tnHw3VtMMgP7b-14" vertex="1">
          <mxGeometry x="150" width="280" height="30" as="geometry">
            <mxRectangle width="280" height="30" as="alternateBounds" />
          </mxGeometry>
        </mxCell>
        <mxCell id="C-vyLk0tnHw3VtMMgP7b-17" value="" style="shape=partialRectangle;collapsible=0;dropTarget=0;pointerEvents=0;fillColor=none;points=[[0,0.5],[1,0.5]];portConstraint=eastwest;top=0;left=0;right=0;bottom=0;" parent="C-vyLk0tnHw3VtMMgP7b-13" vertex="1">
          <mxGeometry y="60" width="430" height="30" as="geometry" />
        </mxCell>
        <mxCell id="C-vyLk0tnHw3VtMMgP7b-18" value="FK_REVIEW_VIDEO" style="shape=partialRectangle;overflow=hidden;connectable=0;fillColor=none;top=0;left=0;bottom=0;right=0;" parent="C-vyLk0tnHw3VtMMgP7b-17" vertex="1">
          <mxGeometry width="150" height="30" as="geometry">
            <mxRectangle width="150" height="30" as="alternateBounds" />
          </mxGeometry>
        </mxCell>
        <mxCell id="C-vyLk0tnHw3VtMMgP7b-19" value="video_id    INT NOT NULL" style="shape=partialRectangle;overflow=hidden;connectable=0;fillColor=none;top=0;left=0;bottom=0;right=0;align=left;spacingLeft=6;" parent="C-vyLk0tnHw3VtMMgP7b-17" vertex="1">
          <mxGeometry x="150" width="280" height="30" as="geometry">
            <mxRectangle width="280" height="30" as="alternateBounds" />
          </mxGeometry>
        </mxCell>
        <mxCell id="C-vyLk0tnHw3VtMMgP7b-20" value="" style="shape=partialRectangle;collapsible=0;dropTarget=0;pointerEvents=0;fillColor=none;points=[[0,0.5],[1,0.5]];portConstraint=eastwest;top=0;left=0;right=0;bottom=0;" parent="C-vyLk0tnHw3VtMMgP7b-13" vertex="1">
          <mxGeometry y="90" width="430" height="30" as="geometry" />
        </mxCell>
        <mxCell id="C-vyLk0tnHw3VtMMgP7b-21" value="FK_REVIEW_USER" style="shape=partialRectangle;overflow=hidden;connectable=0;fillColor=none;top=0;left=0;bottom=0;right=0;" parent="C-vyLk0tnHw3VtMMgP7b-20" vertex="1">
          <mxGeometry width="150" height="30" as="geometry">
            <mxRectangle width="150" height="30" as="alternateBounds" />
          </mxGeometry>
        </mxCell>
        <mxCell id="C-vyLk0tnHw3VtMMgP7b-22" value="user_id    INT NOT NULL" style="shape=partialRectangle;overflow=hidden;connectable=0;fillColor=none;top=0;left=0;bottom=0;right=0;align=left;spacingLeft=6;" parent="C-vyLk0tnHw3VtMMgP7b-20" vertex="1">
          <mxGeometry x="150" width="280" height="30" as="geometry">
            <mxRectangle width="280" height="30" as="alternateBounds" />
          </mxGeometry>
        </mxCell>
        <mxCell id="t7cCHwxWvPuToDeoCMoL-60" value="" style="shape=tableRow;horizontal=0;startSize=0;swimlaneHead=0;swimlaneBody=0;fillColor=none;collapsible=0;dropTarget=0;points=[[0,0.5],[1,0.5]];portConstraint=eastwest;top=0;left=0;right=0;bottom=0;" vertex="1" parent="C-vyLk0tnHw3VtMMgP7b-13">
          <mxGeometry y="120" width="430" height="30" as="geometry" />
        </mxCell>
        <mxCell id="t7cCHwxWvPuToDeoCMoL-61" value="" style="shape=partialRectangle;connectable=0;fillColor=none;top=0;left=0;bottom=0;right=0;editable=1;overflow=hidden;" vertex="1" parent="t7cCHwxWvPuToDeoCMoL-60">
          <mxGeometry width="150" height="30" as="geometry">
            <mxRectangle width="150" height="30" as="alternateBounds" />
          </mxGeometry>
        </mxCell>
        <mxCell id="t7cCHwxWvPuToDeoCMoL-62" value="comment    NOT NULL TEXT" style="shape=partialRectangle;connectable=0;fillColor=none;top=0;left=0;bottom=0;right=0;align=left;spacingLeft=6;overflow=hidden;" vertex="1" parent="t7cCHwxWvPuToDeoCMoL-60">
          <mxGeometry x="150" width="280" height="30" as="geometry">
            <mxRectangle width="280" height="30" as="alternateBounds" />
          </mxGeometry>
        </mxCell>
        <mxCell id="t7cCHwxWvPuToDeoCMoL-63" value="" style="shape=tableRow;horizontal=0;startSize=0;swimlaneHead=0;swimlaneBody=0;fillColor=none;collapsible=0;dropTarget=0;points=[[0,0.5],[1,0.5]];portConstraint=eastwest;top=0;left=0;right=0;bottom=0;" vertex="1" parent="C-vyLk0tnHw3VtMMgP7b-13">
          <mxGeometry y="150" width="430" height="30" as="geometry" />
        </mxCell>
        <mxCell id="t7cCHwxWvPuToDeoCMoL-64" value="" style="shape=partialRectangle;connectable=0;fillColor=none;top=0;left=0;bottom=0;right=0;editable=1;overflow=hidden;" vertex="1" parent="t7cCHwxWvPuToDeoCMoL-63">
          <mxGeometry width="150" height="30" as="geometry">
            <mxRectangle width="150" height="30" as="alternateBounds" />
          </mxGeometry>
        </mxCell>
        <mxCell id="t7cCHwxWvPuToDeoCMoL-65" value="write_date     DATE DEFAULT NOW()" style="shape=partialRectangle;connectable=0;fillColor=none;top=0;left=0;bottom=0;right=0;align=left;spacingLeft=6;overflow=hidden;" vertex="1" parent="t7cCHwxWvPuToDeoCMoL-63">
          <mxGeometry x="150" width="280" height="30" as="geometry">
            <mxRectangle width="280" height="30" as="alternateBounds" />
          </mxGeometry>
        </mxCell>
        <mxCell id="t7cCHwxWvPuToDeoCMoL-82" value="" style="edgeStyle=entityRelationEdgeStyle;endArrow=ERzeroToMany;startArrow=ERone;endFill=1;startFill=0;entryX=0;entryY=0.5;entryDx=0;entryDy=0;exitX=1;exitY=0.5;exitDx=0;exitDy=0;fillColor=#d5e8d4;strokeColor=#82b366;" edge="1" parent="1" source="t7cCHwxWvPuToDeoCMoL-67" target="C-vyLk0tnHw3VtMMgP7b-20">
          <mxGeometry width="100" height="100" relative="1" as="geometry">
            <mxPoint x="312" y="315" as="sourcePoint" />
            <mxPoint x="390" y="465" as="targetPoint" />
          </mxGeometry>
        </mxCell>
        <mxCell id="t7cCHwxWvPuToDeoCMoL-99" value="" style="edgeStyle=entityRelationEdgeStyle;endArrow=ERzeroToMany;startArrow=ERone;endFill=1;startFill=0;exitX=0;exitY=0.5;exitDx=0;exitDy=0;fillColor=#f8cecc;strokeColor=#b85450;entryX=1;entryY=0.5;entryDx=0;entryDy=0;" edge="1" parent="1" source="t7cCHwxWvPuToDeoCMoL-67" target="t7cCHwxWvPuToDeoCMoL-90">
          <mxGeometry width="100" height="100" relative="1" as="geometry">
            <mxPoint x="310" y="520" as="sourcePoint" />
            <mxPoint x="-180" y="600" as="targetPoint" />
          </mxGeometry>
        </mxCell>
        <mxCell id="t7cCHwxWvPuToDeoCMoL-100" value="" style="edgeStyle=entityRelationEdgeStyle;endArrow=ERzeroToMany;startArrow=ERone;endFill=1;startFill=0;entryX=1;entryY=0.5;entryDx=0;entryDy=0;exitX=0;exitY=0.5;exitDx=0;exitDy=0;fillColor=#f8cecc;strokeColor=#b85450;" edge="1" parent="1" source="C-vyLk0tnHw3VtMMgP7b-3" target="t7cCHwxWvPuToDeoCMoL-87">
          <mxGeometry width="100" height="100" relative="1" as="geometry">
            <mxPoint x="312" y="525" as="sourcePoint" />
            <mxPoint x="540" y="625" as="targetPoint" />
          </mxGeometry>
        </mxCell>
        <mxCell id="t7cCHwxWvPuToDeoCMoL-101" value="Follow" style="shape=table;startSize=30;container=1;collapsible=1;childLayout=tableLayout;fixedRows=1;rowLines=0;fontStyle=1;align=center;resizeLast=1;" vertex="1" parent="1">
          <mxGeometry x="530" y="760" width="390" height="120" as="geometry" />
        </mxCell>
        <mxCell id="t7cCHwxWvPuToDeoCMoL-102" value="" style="shape=partialRectangle;collapsible=0;dropTarget=0;pointerEvents=0;fillColor=none;points=[[0,0.5],[1,0.5]];portConstraint=eastwest;top=0;left=0;right=0;bottom=1;" vertex="1" parent="t7cCHwxWvPuToDeoCMoL-101">
          <mxGeometry y="30" width="390" height="30" as="geometry" />
        </mxCell>
        <mxCell id="t7cCHwxWvPuToDeoCMoL-103" value="PK" style="shape=partialRectangle;overflow=hidden;connectable=0;fillColor=none;top=0;left=0;bottom=0;right=0;fontStyle=1;" vertex="1" parent="t7cCHwxWvPuToDeoCMoL-102">
          <mxGeometry width="120" height="30" as="geometry">
            <mxRectangle width="120" height="30" as="alternateBounds" />
          </mxGeometry>
        </mxCell>
        <mxCell id="t7cCHwxWvPuToDeoCMoL-104" value="follow_id    INT NOT NULL" style="shape=partialRectangle;overflow=hidden;connectable=0;fillColor=none;top=0;left=0;bottom=0;right=0;align=left;spacingLeft=6;fontStyle=5;" vertex="1" parent="t7cCHwxWvPuToDeoCMoL-102">
          <mxGeometry x="120" width="270" height="30" as="geometry">
            <mxRectangle width="270" height="30" as="alternateBounds" />
          </mxGeometry>
        </mxCell>
        <mxCell id="t7cCHwxWvPuToDeoCMoL-105" value="" style="shape=partialRectangle;collapsible=0;dropTarget=0;pointerEvents=0;fillColor=none;points=[[0,0.5],[1,0.5]];portConstraint=eastwest;top=0;left=0;right=0;bottom=0;" vertex="1" parent="t7cCHwxWvPuToDeoCMoL-101">
          <mxGeometry y="60" width="390" height="30" as="geometry" />
        </mxCell>
        <mxCell id="t7cCHwxWvPuToDeoCMoL-106" value="FK_FOLLOWING" style="shape=partialRectangle;overflow=hidden;connectable=0;fillColor=none;top=0;left=0;bottom=0;right=0;" vertex="1" parent="t7cCHwxWvPuToDeoCMoL-105">
          <mxGeometry width="120" height="30" as="geometry">
            <mxRectangle width="120" height="30" as="alternateBounds" />
          </mxGeometry>
        </mxCell>
        <mxCell id="t7cCHwxWvPuToDeoCMoL-107" value="following    INT NOT NULL" style="shape=partialRectangle;overflow=hidden;connectable=0;fillColor=none;top=0;left=0;bottom=0;right=0;align=left;spacingLeft=6;" vertex="1" parent="t7cCHwxWvPuToDeoCMoL-105">
          <mxGeometry x="120" width="270" height="30" as="geometry">
            <mxRectangle width="270" height="30" as="alternateBounds" />
          </mxGeometry>
        </mxCell>
        <mxCell id="t7cCHwxWvPuToDeoCMoL-108" value="" style="shape=partialRectangle;collapsible=0;dropTarget=0;pointerEvents=0;fillColor=none;points=[[0,0.5],[1,0.5]];portConstraint=eastwest;top=0;left=0;right=0;bottom=0;" vertex="1" parent="t7cCHwxWvPuToDeoCMoL-101">
          <mxGeometry y="90" width="390" height="30" as="geometry" />
        </mxCell>
        <mxCell id="t7cCHwxWvPuToDeoCMoL-109" value="FK_FOLLOWER" style="shape=partialRectangle;overflow=hidden;connectable=0;fillColor=none;top=0;left=0;bottom=0;right=0;" vertex="1" parent="t7cCHwxWvPuToDeoCMoL-108">
          <mxGeometry width="120" height="30" as="geometry">
            <mxRectangle width="120" height="30" as="alternateBounds" />
          </mxGeometry>
        </mxCell>
        <mxCell id="t7cCHwxWvPuToDeoCMoL-110" value="follower    INT NOT NULL" style="shape=partialRectangle;overflow=hidden;connectable=0;fillColor=none;top=0;left=0;bottom=0;right=0;align=left;spacingLeft=6;" vertex="1" parent="t7cCHwxWvPuToDeoCMoL-108">
          <mxGeometry x="120" width="270" height="30" as="geometry">
            <mxRectangle width="270" height="30" as="alternateBounds" />
          </mxGeometry>
        </mxCell>
        <mxCell id="t7cCHwxWvPuToDeoCMoL-111" value="" style="edgeStyle=entityRelationEdgeStyle;endArrow=ERzeroToMany;startArrow=ERone;endFill=1;startFill=0;entryX=0;entryY=0.5;entryDx=0;entryDy=0;fillColor=#dae8fc;strokeColor=#6c8ebf;" edge="1" parent="1" source="t7cCHwxWvPuToDeoCMoL-66" target="t7cCHwxWvPuToDeoCMoL-105">
          <mxGeometry width="100" height="100" relative="1" as="geometry">
            <mxPoint x="312" y="525" as="sourcePoint" />
            <mxPoint x="540" y="625" as="targetPoint" />
          </mxGeometry>
        </mxCell>
        <mxCell id="t7cCHwxWvPuToDeoCMoL-112" value="" style="edgeStyle=entityRelationEdgeStyle;endArrow=ERzeroToMany;startArrow=ERone;endFill=1;startFill=0;entryX=0;entryY=0.5;entryDx=0;entryDy=0;fillColor=#dae8fc;strokeColor=#6c8ebf;" edge="1" parent="1" source="t7cCHwxWvPuToDeoCMoL-66" target="t7cCHwxWvPuToDeoCMoL-108">
          <mxGeometry width="100" height="100" relative="1" as="geometry">
            <mxPoint x="120" y="719.9999999999999" as="sourcePoint" />
            <mxPoint x="511.75" y="849.42" as="targetPoint" />
          </mxGeometry>
        </mxCell>
        <mxCell id="t7cCHwxWvPuToDeoCMoL-66" value="User" style="shape=table;startSize=30;container=1;collapsible=1;childLayout=tableLayout;fixedRows=1;rowLines=0;fontStyle=1;align=center;resizeLast=1;" vertex="1" parent="1">
          <mxGeometry x="50" y="570" width="250" height="170" as="geometry" />
        </mxCell>
        <mxCell id="t7cCHwxWvPuToDeoCMoL-67" value="" style="shape=partialRectangle;collapsible=0;dropTarget=0;pointerEvents=0;fillColor=none;points=[[0,0.5],[1,0.5]];portConstraint=eastwest;top=0;left=0;right=0;bottom=1;" vertex="1" parent="t7cCHwxWvPuToDeoCMoL-66">
          <mxGeometry y="30" width="250" height="30" as="geometry" />
        </mxCell>
        <mxCell id="t7cCHwxWvPuToDeoCMoL-68" value="PK" style="shape=partialRectangle;overflow=hidden;connectable=0;fillColor=none;top=0;left=0;bottom=0;right=0;fontStyle=1;" vertex="1" parent="t7cCHwxWvPuToDeoCMoL-67">
          <mxGeometry width="30" height="30" as="geometry">
            <mxRectangle width="30" height="30" as="alternateBounds" />
          </mxGeometry>
        </mxCell>
        <mxCell id="t7cCHwxWvPuToDeoCMoL-69" value="user_id    INT NOT NULL" style="shape=partialRectangle;overflow=hidden;connectable=0;fillColor=none;top=0;left=0;bottom=0;right=0;align=left;spacingLeft=6;fontStyle=4;" vertex="1" parent="t7cCHwxWvPuToDeoCMoL-67">
          <mxGeometry x="30" width="220" height="30" as="geometry">
            <mxRectangle width="220" height="30" as="alternateBounds" />
          </mxGeometry>
        </mxCell>
        <mxCell id="t7cCHwxWvPuToDeoCMoL-70" value="" style="shape=partialRectangle;collapsible=0;dropTarget=0;pointerEvents=0;fillColor=none;points=[[0,0.5],[1,0.5]];portConstraint=eastwest;top=0;left=0;right=0;bottom=0;" vertex="1" parent="t7cCHwxWvPuToDeoCMoL-66">
          <mxGeometry y="60" width="250" height="30" as="geometry" />
        </mxCell>
        <mxCell id="t7cCHwxWvPuToDeoCMoL-71" value="" style="shape=partialRectangle;overflow=hidden;connectable=0;fillColor=none;top=0;left=0;bottom=0;right=0;" vertex="1" parent="t7cCHwxWvPuToDeoCMoL-70">
          <mxGeometry width="30" height="30" as="geometry">
            <mxRectangle width="30" height="30" as="alternateBounds" />
          </mxGeometry>
        </mxCell>
        <mxCell id="t7cCHwxWvPuToDeoCMoL-72" value="ID    VARCHAR(50) NOT NULL" style="shape=partialRectangle;overflow=hidden;connectable=0;fillColor=none;top=0;left=0;bottom=0;right=0;align=left;spacingLeft=6;" vertex="1" parent="t7cCHwxWvPuToDeoCMoL-70">
          <mxGeometry x="30" width="220" height="30" as="geometry">
            <mxRectangle width="220" height="30" as="alternateBounds" />
          </mxGeometry>
        </mxCell>
        <mxCell id="t7cCHwxWvPuToDeoCMoL-73" value="" style="shape=partialRectangle;collapsible=0;dropTarget=0;pointerEvents=0;fillColor=none;points=[[0,0.5],[1,0.5]];portConstraint=eastwest;top=0;left=0;right=0;bottom=0;" vertex="1" parent="t7cCHwxWvPuToDeoCMoL-66">
          <mxGeometry y="90" width="250" height="30" as="geometry" />
        </mxCell>
        <mxCell id="t7cCHwxWvPuToDeoCMoL-74" value="" style="shape=partialRectangle;overflow=hidden;connectable=0;fillColor=none;top=0;left=0;bottom=0;right=0;" vertex="1" parent="t7cCHwxWvPuToDeoCMoL-73">
          <mxGeometry width="30" height="30" as="geometry">
            <mxRectangle width="30" height="30" as="alternateBounds" />
          </mxGeometry>
        </mxCell>
        <mxCell id="t7cCHwxWvPuToDeoCMoL-75" value="pwd    VARCHAR(50) NOT NULL" style="shape=partialRectangle;overflow=hidden;connectable=0;fillColor=none;top=0;left=0;bottom=0;right=0;align=left;spacingLeft=6;" vertex="1" parent="t7cCHwxWvPuToDeoCMoL-73">
          <mxGeometry x="30" width="220" height="30" as="geometry">
            <mxRectangle width="220" height="30" as="alternateBounds" />
          </mxGeometry>
        </mxCell>
        <mxCell id="t7cCHwxWvPuToDeoCMoL-76" value="" style="shape=tableRow;horizontal=0;startSize=0;swimlaneHead=0;swimlaneBody=0;fillColor=none;collapsible=0;dropTarget=0;points=[[0,0.5],[1,0.5]];portConstraint=eastwest;top=0;left=0;right=0;bottom=0;" vertex="1" parent="t7cCHwxWvPuToDeoCMoL-66">
          <mxGeometry y="120" width="250" height="20" as="geometry" />
        </mxCell>
        <mxCell id="t7cCHwxWvPuToDeoCMoL-77" value="" style="shape=partialRectangle;connectable=0;fillColor=none;top=0;left=0;bottom=0;right=0;editable=1;overflow=hidden;" vertex="1" parent="t7cCHwxWvPuToDeoCMoL-76">
          <mxGeometry width="30" height="20" as="geometry">
            <mxRectangle width="30" height="20" as="alternateBounds" />
          </mxGeometry>
        </mxCell>
        <mxCell id="t7cCHwxWvPuToDeoCMoL-78" value="name     VARCHAR(50) NOT NULL" style="shape=partialRectangle;connectable=0;fillColor=none;top=0;left=0;bottom=0;right=0;align=left;spacingLeft=6;overflow=hidden;" vertex="1" parent="t7cCHwxWvPuToDeoCMoL-76">
          <mxGeometry x="30" width="220" height="20" as="geometry">
            <mxRectangle width="220" height="20" as="alternateBounds" />
          </mxGeometry>
        </mxCell>
        <mxCell id="t7cCHwxWvPuToDeoCMoL-79" value="" style="shape=tableRow;horizontal=0;startSize=0;swimlaneHead=0;swimlaneBody=0;fillColor=none;collapsible=0;dropTarget=0;points=[[0,0.5],[1,0.5]];portConstraint=eastwest;top=0;left=0;right=0;bottom=0;" vertex="1" parent="t7cCHwxWvPuToDeoCMoL-66">
          <mxGeometry y="140" width="250" height="30" as="geometry" />
        </mxCell>
        <mxCell id="t7cCHwxWvPuToDeoCMoL-80" value="" style="shape=partialRectangle;connectable=0;fillColor=none;top=0;left=0;bottom=0;right=0;editable=1;overflow=hidden;" vertex="1" parent="t7cCHwxWvPuToDeoCMoL-79">
          <mxGeometry width="30" height="30" as="geometry">
            <mxRectangle width="30" height="30" as="alternateBounds" />
          </mxGeometry>
        </mxCell>
        <mxCell id="t7cCHwxWvPuToDeoCMoL-81" value="email    VARCHAR(50)" style="shape=partialRectangle;connectable=0;fillColor=none;top=0;left=0;bottom=0;right=0;align=left;spacingLeft=6;overflow=hidden;" vertex="1" parent="t7cCHwxWvPuToDeoCMoL-79">
          <mxGeometry x="30" width="220" height="30" as="geometry">
            <mxRectangle width="220" height="30" as="alternateBounds" />
          </mxGeometry>
        </mxCell>
        <mxCell id="t7cCHwxWvPuToDeoCMoL-83" value="Like" style="shape=table;startSize=30;container=1;collapsible=1;childLayout=tableLayout;fixedRows=1;rowLines=0;fontStyle=1;align=center;resizeLast=1;" vertex="1" parent="1">
          <mxGeometry x="-450" y="500" width="305" height="120" as="geometry" />
        </mxCell>
        <mxCell id="t7cCHwxWvPuToDeoCMoL-84" value="" style="shape=partialRectangle;collapsible=0;dropTarget=0;pointerEvents=0;fillColor=none;points=[[0,0.5],[1,0.5]];portConstraint=eastwest;top=0;left=0;right=0;bottom=1;" vertex="1" parent="t7cCHwxWvPuToDeoCMoL-83">
          <mxGeometry y="30" width="305" height="30" as="geometry" />
        </mxCell>
        <mxCell id="t7cCHwxWvPuToDeoCMoL-85" value="PK" style="shape=partialRectangle;overflow=hidden;connectable=0;fillColor=none;top=0;left=0;bottom=0;right=0;fontStyle=1;" vertex="1" parent="t7cCHwxWvPuToDeoCMoL-84">
          <mxGeometry width="110" height="30" as="geometry">
            <mxRectangle width="110" height="30" as="alternateBounds" />
          </mxGeometry>
        </mxCell>
        <mxCell id="t7cCHwxWvPuToDeoCMoL-86" value="like_id    INT NOT NULL" style="shape=partialRectangle;overflow=hidden;connectable=0;fillColor=none;top=0;left=0;bottom=0;right=0;align=left;spacingLeft=6;fontStyle=5;" vertex="1" parent="t7cCHwxWvPuToDeoCMoL-84">
          <mxGeometry x="110" width="195" height="30" as="geometry">
            <mxRectangle width="195" height="30" as="alternateBounds" />
          </mxGeometry>
        </mxCell>
        <mxCell id="t7cCHwxWvPuToDeoCMoL-87" value="" style="shape=partialRectangle;collapsible=0;dropTarget=0;pointerEvents=0;fillColor=none;points=[[0,0.5],[1,0.5]];portConstraint=eastwest;top=0;left=0;right=0;bottom=0;" vertex="1" parent="t7cCHwxWvPuToDeoCMoL-83">
          <mxGeometry y="60" width="305" height="30" as="geometry" />
        </mxCell>
        <mxCell id="t7cCHwxWvPuToDeoCMoL-88" value="FK_LIKE_VIDEO" style="shape=partialRectangle;overflow=hidden;connectable=0;fillColor=none;top=0;left=0;bottom=0;right=0;" vertex="1" parent="t7cCHwxWvPuToDeoCMoL-87">
          <mxGeometry width="110" height="30" as="geometry">
            <mxRectangle width="110" height="30" as="alternateBounds" />
          </mxGeometry>
        </mxCell>
        <mxCell id="t7cCHwxWvPuToDeoCMoL-89" value="video_id    INT NOT NULL" style="shape=partialRectangle;overflow=hidden;connectable=0;fillColor=none;top=0;left=0;bottom=0;right=0;align=left;spacingLeft=6;" vertex="1" parent="t7cCHwxWvPuToDeoCMoL-87">
          <mxGeometry x="110" width="195" height="30" as="geometry">
            <mxRectangle width="195" height="30" as="alternateBounds" />
          </mxGeometry>
        </mxCell>
        <mxCell id="t7cCHwxWvPuToDeoCMoL-90" value="" style="shape=partialRectangle;collapsible=0;dropTarget=0;pointerEvents=0;fillColor=none;points=[[0,0.5],[1,0.5]];portConstraint=eastwest;top=0;left=0;right=0;bottom=0;" vertex="1" parent="t7cCHwxWvPuToDeoCMoL-83">
          <mxGeometry y="90" width="305" height="30" as="geometry" />
        </mxCell>
        <mxCell id="t7cCHwxWvPuToDeoCMoL-91" value="FK_LIKE_USER" style="shape=partialRectangle;overflow=hidden;connectable=0;fillColor=none;top=0;left=0;bottom=0;right=0;" vertex="1" parent="t7cCHwxWvPuToDeoCMoL-90">
          <mxGeometry width="110" height="30" as="geometry">
            <mxRectangle width="110" height="30" as="alternateBounds" />
          </mxGeometry>
        </mxCell>
        <mxCell id="t7cCHwxWvPuToDeoCMoL-92" value="user_id    INT NOT NULL" style="shape=partialRectangle;overflow=hidden;connectable=0;fillColor=none;top=0;left=0;bottom=0;right=0;align=left;spacingLeft=6;" vertex="1" parent="t7cCHwxWvPuToDeoCMoL-90">
          <mxGeometry x="110" width="195" height="30" as="geometry">
            <mxRectangle width="195" height="30" as="alternateBounds" />
          </mxGeometry>
        </mxCell>
      </root>
    </mxGraphModel>
  </diagram>
</mxfile>
